<svg xmlns="http://www.w3.org/2000/svg" width="157.454" height="204.359" viewBox="0 0 157.454 204.359"><g transform="translate(-317.402 -240.026)"><g transform="translate(317.402 240.026)"><path d="M396.133,541.759,387.125,498.4s-65.734,8.433-69.518-72.274c-.288-9.009-6.54-81.53,78.527-88.358,9.255-.288,73.262-9.626,78.362,86.342.37,7.281,8.021,71.986-70.917,73.8C403.579,501.57,396.133,541.759,396.133,541.759Z" transform="translate(-317.402 -337.401)" fill="#ff001c"/><g transform="translate(37.334 41.478)"><path d="M426.853,516.007c-.411-1.316-.864-2.633-1.234-3.949a7.6,7.6,0,0,0-.823-2.468c-.864-1.357-2.1-1.728-3.126-2.3-1.6-.905-2.427-2.427-4.072-5.471a28.841,28.841,0,0,1-3.126-8.844,78.592,78.592,0,0,1-.823-8.433A16.033,16.033,0,0,0,410.564,475c-2.18-3.62-2.262-7.445-2.386-9.914-.041-1.687-.329-10.366,5.1-14.726,3-2.427,4.2-.658,8.145-3.5,3.867-2.8,4.2-5.594,8.062-6.746a8.84,8.84,0,0,1,4.813-.37c2.221.576,3.044,1.974,4.9,1.769.37-.041.329-.082,2.633-1.193a33.479,33.479,0,0,1,3.62-1.6,11.2,11.2,0,0,1,4.443-.411c1.6.206,1.769.617,5.1,1.851,2.386.864,3.579,1.316,4.854,1.357,2.427.082,2.962-1.028,5.224-1.44,3.455-.658,8.885,2.139,11.97,5.512a11.525,11.525,0,0,1,2.468,3.455c1.974,4.484-.864,6.993,1.234,10.284a46.634,46.634,0,0,0,3.826,4.525,15.752,15.752,0,0,1,1.728,1.974c1.357,1.974,2.633,3.5,3.085,5.43.823,3.784.9,5.265,1.028,11.682.123,5.636-.946,16-6.952,19.416-3.25,1.851-4.9,1.851-6.129,2.879a6.315,6.315,0,0,0-1.111,1.481c-2.221,3.661-1.974,7.98-2.468,9.955-1.44,6.088-13.7,7.857-25.092,9.543-5.594,1.111-16,1.4-19.5-3.826C428.416,521.149,427.882,519.421,426.853,516.007Z" transform="translate(-408.162 -438.235)" fill="#1d1300"/></g><g transform="translate(48.191 64.134)"><path d="M449.177,553.076c-1.851-2.468-2.468-9.091-2.468-11.559a4.712,4.712,0,0,0-.535-2.468c-.576-.987-1.4-1.316-3-2.345a20.135,20.135,0,0,1-2.921-2.016,22.206,22.206,0,0,1-5.06-8.844,17.283,17.283,0,0,1-.617-4.69,5.9,5.9,0,0,1,.7-3.7,6.558,6.558,0,0,1,3.25-3.25c1.933-.987,3.743-1.44,8.392-2.221,3.25-.535,4.9-.823,7.445-1.111a103.441,103.441,0,0,1,14.274-.823c8.926.247,15.1,2.221,15.261,1.563.041-.206-.411-.658-3.291-1.81a50.6,50.6,0,0,1-7.2-3.291c-2.55-1.4-3.826-2.139-4.525-3.743a6.768,6.768,0,0,1-.041-4.813c1.563-3.661,6.5-4.36,7.651-4.525,3.538-.494,6.458.617,10.572,2.139a38.007,38.007,0,0,1,4.072,1.81c2.509,1.316,5.635,2.962,7.775,5.677,2.633,3.332,2.8,7.158,2.962,10.7.165,3.949.411,9.543-3.167,13.986-3.62,4.525-7.24,2.756-10.819,6.911-4.854,5.677-.288,10.9-4.237,15.1-.946,1.028-2.468,2.345-17.153,3.908C452.138,555.256,450.2,554.433,449.177,553.076Z" transform="translate(-434.555 -493.311)" fill="#fecc97"/></g><g transform="translate(41.112 46.565)"><path d="M544.077,470.645c1.4-6.623-.782-12.67-5.018-14.891a9.566,9.566,0,0,0-5.718-.9,8.661,8.661,0,0,0-6.54,1.6,8.206,8.206,0,0,0-2.345,3.044c-.37.74-1.645,3.5-.617,5.1,1.111,1.769,4.237,1.07,7.733,1.316C534.574,466.079,538.935,467.066,544.077,470.645Z" transform="translate(-479.802 -453.039)" fill="#fecc97"/><path d="M492.962,477.914c.206-1.4.494-3.455.7-6.006.165-2.3.082-2.756.206-6.582a69.105,69.105,0,0,1,.823-10.654c.247-1.481.535-2.674.7-3.455-4.731-1.316-9.5-.535-12.135,2.427a11.991,11.991,0,0,0-2.591,6.417c-.247,1.81,0,3.455.535,6.828a38.5,38.5,0,0,0,1.645,6.828c.9,2.468,1.4,3.7,2.468,4.484C487.985,480.135,492.221,478.243,492.962,477.914Z" transform="translate(-454.561 -450.6)" fill="#fecc97"/><path d="M433.288,496.388a24.9,24.9,0,0,1-7.281-23.488,10.94,10.94,0,0,0-6.335,3.7,11.732,11.732,0,0,0-2.016,9.872c.987,4.525,1.81,7.939,5.183,11.106C427.118,498.2,429.38,497.746,433.288,496.388Z" transform="translate(-417.347 -463.727)" fill="#fecc97"/><path d="M460.243,483.048a75.076,75.076,0,0,1-3.661-26.409,7.733,7.733,0,0,0-3.99-.535,8.157,8.157,0,0,0-3.99,1.645,9.261,9.261,0,0,0-2.427,2.674,10.024,10.024,0,0,0-.74,7.775,17.834,17.834,0,0,0,2.1,10.777c1.275,2.221,2.427,4.689,5.183,5.594C456.335,485.8,459.749,483.418,460.243,483.048Z" transform="translate(-433.607 -453.801)" fill="#fecc97"/></g></g></g></svg>