<svg xmlns="http://www.w3.org/2000/svg" width="157.778" height="204.834" viewBox="0 0 157.778 204.834"><g transform="translate(-529.939 -161.501)"><g transform="translate(529.939 161.501)"><path d="M872.372,366.335l-8.988-43.457S797.5,331.33,793.7,250.435c-.289-9.03-6.6-81.719,78.668-88.564,9.277-.289,73.432-9.648,78.545,86.543.371,7.3,8,72.154-71.082,73.968C879.876,326.052,872.372,366.335,872.372,366.335Z" transform="translate(-793.496 -161.501)" fill="#ff001c"/><g transform="translate(37.248 22.857)"><path d="M899.572,336.739a101.035,101.035,0,0,0,23.543,2.886,98.69,98.69,0,0,0,21.894-2.433A54.323,54.323,0,0,0,946.575,328a48.809,48.809,0,0,0-.041-8.906c.825-.041,9.73-4.453,14.719-14.225,4.164-8.164,4.453-20.121,4.412-24.285V279.14c-.165-6.226-.247-10.266-2.68-13.194a9.07,9.07,0,0,0-6.35-3.3,9.486,9.486,0,0,0-7.05,3.01c.66-10.184.495-15.173.289-17.853a73.13,73.13,0,0,1-.247-8.988c.124-2.886.371-3.092.247-4.494-.041-.66-.66-6.556-4.577-9.194a5.242,5.242,0,0,0-1.773-.825c-4.989-1.278-6.927.948-9.813-.454-2.6-1.278-2.68-4.329-5.937-5.978a10.44,10.44,0,0,0-1.773-.66,8.835,8.835,0,0,0-3.917-.082c-2.762.66-2.6,2.8-4.865,3.546-2.556.825-3.793-1.526-7.5-1.484a10.245,10.245,0,0,0-5.978,2.062c-4,3.175-1.9,7.916-5.525,11.009-2.845,2.433-4.824.124-7.958,2.309-3.463,2.391-4.082,7.916-5.278,18.966-.33,2.845-.454,5.154-.618,7.174-.412,5.9-.454,10.555-.495,13.606-.165,18.183.454,24.738,1.9,31.418,1.979,8.988,4.041,11.668,5.36,13.029,2.721,2.845,6.6,3.793,7.05,7.133.247,1.773-.66,2.515-.536,5.113A12.926,12.926,0,0,0,899.572,336.739Z" transform="translate(-883.837 -216.939)" fill="#1d1300"/></g><g transform="translate(57.848 30.016)"><path d="M934.418,238.877c.577-3.092,3.051-4.577,4.123-4.577a4.487,4.487,0,0,1,4.453,2.433c1.361,2.721,1.113,7.215,1.113,7.215l.536,32.778L933.8,278.169l.289-13.07C934.089,265.141,934.253,242.093,934.418,238.877Z" transform="translate(-933.8 -234.3)" fill="#fecc97"/><path d="M969.722,277.151l9.854-.041s-.041-6.226.206-11.3c.536-10.308.99-23.831.66-24.491-2.061-11.586-10.349-6.308-10.761-1.773,0,.577.247,12.74.041,23.5C969.6,269.812,969.722,277.151,969.722,277.151Z" transform="translate(-954.879 -234.312)" fill="#fecc97"/></g><g transform="translate(43.169 33.628)"><path d="M911.145,349.865V338.733H914.9v-2.721a20.849,20.849,0,0,1-13.317-8.947c-2.6-4.041-3.711-10.308-3.3-18.142,0-8.741.124-45.354.124-45.354a20.044,20.044,0,0,1,1.278-6.349,5.631,5.631,0,0,1,4.948-3.5,4.313,4.313,0,0,1,3.752,1.814c.412,2.6.536,7.669.742,18.224.041,1.9-.206,13.194-.206,13.194h.618l31.624-1.361.206-5.525s1.608-29.315,1.732-30.717c.247-4.082,6.8-11.091,10.761-1.361.783,2.6.495,5.2,0,21.687,0,2.02-.33,30.016-.33,30.016s-14.554-1.361-24.12,11.132c0,.742,2.68,2.8,2.68,2.8l1.319-1.4,1.319-1.361s5.2-6.844,16.616-7.05a32.715,32.715,0,0,0,4.494,0c-.206-2.721-.7-17.894,8.741-20.822,3.835-.412,5.607.618,5.071,15.3,0,3.01-2.969,22.677-9.813,27.625-5.154,4.082-6.515,4.618-10.555,5.814a70.532,70.532,0,0,0-8.617,2.8l-.33.124v1.9l.124,1.979c1.113-.289,2.185-.577,3.3-.825,2.391-.618,4.783-1.154,7.133-1.732-.206,1.484-.536,13.936-.536,13.936l-39.21-.041Z" transform="translate(-898.197 -243.062)" fill="#fecc97"/></g></g></g></svg>