<svg xmlns="http://www.w3.org/2000/svg" width="157.451" height="204.359" viewBox="0 0 157.451 204.359"><g transform="translate(-748.462 -240.026)"><g transform="translate(748.462 240.026)"><path d="M1361.775,541.759l-9.009-43.356s-65.734,8.433-69.559-72.274c-.288-9.009-6.54-81.53,78.527-88.358,9.255-.288,73.261-9.626,78.362,86.342.37,7.281,7.98,71.986-70.917,73.8C1369.22,501.57,1361.775,541.759,1361.775,541.759Z" transform="translate(-1283.002 -337.401)" fill="#ff001c"/></g><g transform="translate(786.978 262.252)"><path d="M1416.81,510.629c16.454-.946,21.226-.206,23.529-3.908,1.974-3.126-.453-5.06,1.234-10.983,1.933-6.787,6.294-7.733,9.667-14.85,1.481-3.126,3.538-7.528,3.126-13.369a23.551,23.551,0,0,0-5.471-13.492c-2.633-3.044-3.538-2.3-5.06-4.484-2.962-4.319-.576-8.721,1.357-21.39.658-4.36-.123-.452,1.234-18.8.288-3.579.576-7.158-1.645-10.366a10.452,10.452,0,0,0-6.006-4.278c-4.854-1.111-6.5,3-11.6,2.838-6.253-.206-8.021-6.582-13.369-6.088-3.784.329-6.335,3.743-7.528,5.348-7.9,10.531.987,21.061-5.183,30.358-5.471,8.268-14.521,3.25-20.732,12.341-4.9,7.2-3.826,17.606-3.085,24.352a83.215,83.215,0,0,0,2.3,11.847c1.275,4.813,1.892,7.281,3.5,10.325,2.838,5.348,4.854,5.142,7.98,10.2,4.484,7.157,2.1,10.284,5.553,13.451C1399.574,512.275,1402.618,511.452,1416.81,510.629Z" transform="translate(-1376.635 -391.434)"/></g><g transform="translate(795.46 321.724)"><g transform="translate(0 0)"><path d="M1411.177,589.277c-.987-1.81-1.769-6.705-1.769-9.543a4.712,4.712,0,0,0-.535-2.468c-.576-.987-1.357-1.316-3-2.345a20.126,20.126,0,0,1-2.921-2.016,22.205,22.205,0,0,1-5.06-8.844,19.06,19.06,0,0,1-.617-4.69,5.9,5.9,0,0,1,.7-3.7,6.494,6.494,0,0,1,1.44-2.057,5.889,5.889,0,0,1,1.81-.946,14.783,14.783,0,0,1,4.977-.617h.206c.37,0,.9-.082,6.458-.535,2.221-.206,3.784-.288,4.566-.37,10.7-.823,19.169-1.481,19.251-2.921-2.591-1.892-13.081-.946-18.84-.9a4.629,4.629,0,0,1-1.4-4.648c2.633-4.977,7.075-4.648,18.429-6.335,10.613-.782,16.125-.37,21.061,3.7.74.617,3.867,3.949,4.484,9.955a25.933,25.933,0,0,1-2.468,14.644c-2.756,4.936-4.936,5.06-7.322,8.268-4.9,6.541.823,13.163-3.291,17.606-1.6,1.687-3.209,1.522-18.058,1.4C1416.442,591.786,1412.617,591.868,1411.177,589.277Z" transform="translate(-1397.255 -536.011)" fill="#fecc97"/></g></g><g transform="translate(792.003 267.206)"><g transform="translate(0 37.416)"><path d="M1402.281,530.223a43,43,0,0,1-4.319-10.819,39,39,0,0,1-.7-13.2,10.941,10.941,0,0,0-6.335,3.661c-2.3,2.838-2.139,6.253-2.016,9.872.165,4.319.576,6.993.946,7.816.535,1.975,1.81,4.278,3.99,4.731A16.661,16.661,0,0,0,1402.281,530.223Z" transform="translate(-1388.851 -501.361)" fill="#fecc97"/><path d="M1433.838,521.448a79.082,79.082,0,0,1-3.126-15.3,74.512,74.512,0,0,1-.329-11.106,6.961,6.961,0,0,0-3.784-.535,7.4,7.4,0,0,0-3.785,1.645,8.52,8.52,0,0,0-2.262,2.674,29.5,29.5,0,0,0-1.152,7.733,34.445,34.445,0,0,0,2.427,10.819c1.193,2.221,2.3,4.689,4.895,5.594C1430.136,524.162,1433.345,521.818,1433.838,521.448Z" transform="translate(-1406.834 -494.437)" fill="#fecc97"/></g><g transform="translate(27.044 0)"><path d="M1495.3,460.54a38.807,38.807,0,0,1,7.075.165c4.237.452,4.9,1.193,6.006.74.329-9.914.658-9.626,1.851-21.925,1.645-16.865,2.1-19.457,1.522-22.213-3.25-10.2-10.284-3.5-10.819.658-.206,1.44-3.867,31.3-3.867,31.3-.123,1.44-.247,2.921-.494,4.443A65.584,65.584,0,0,1,1495.3,460.54Z" transform="translate(-1478.556 -408.454)" fill="#fecc97"/><path d="M1455.831,457.209c1.357-.288,3.414-.658,5.965-.946,5.43-.658,6.088-.165,7.116-.782-1.481-6.952-.946-10.531-1.728-24.064-1.028-17.647-.987-20.4-2.016-23.118-4.854-10.037-10.7-1.974-10.572,2.386,0,1.522,1.111,32.908,1.111,32.908l.329,5.923C1456,449.476,1456.037,453.754,1455.831,457.209Z" transform="translate(-1454.595 -403.477)" fill="#fecc97"/></g></g><g transform="translate(812.586 323.878)"><path d="M1446.215,541.6a5.382,5.382,0,0,0-5.1,9.379c1.111.041,1.358-.123,1.4-.247.082-.288-.74-.617-1.275-1.769-.124-.288-.165-.494-.247-.658a4.115,4.115,0,0,1-.082-2.3,3.348,3.348,0,0,1,.453-.864,9.076,9.076,0,0,1,2.715-2.633A7.7,7.7,0,0,1,1446.215,541.6Z" transform="translate(-1438.889 -541.247)"/></g></g></svg>