<svg xmlns="http://www.w3.org/2000/svg" width="135.511" height="221" viewBox="0 0 135.511 221"><g transform="translate(-129.5 -8.971)"><g transform="translate(129.5 8.971)"><path d="M173.424,405.178c-1.185-.911-28.068-13.578-28.068-13.578-11.983,3.964-14.626,30.8-15.856,46.658h28.569Z" transform="translate(-129.5 -217.258)" fill="#ce0019" fill-rule="evenodd"/><path d="M330.4,405.178c1.185-.911,28.068-13.578,28.068-13.578,11.983,3.964,14.626,30.8,15.856,46.658H345.755Z" transform="translate(-238.861 -217.258)" fill="#ce0019" fill-rule="evenodd"/><path d="M249.676,327H237.054v7.974c0,4.966-.82,3.919-5.422,6.516,0,0-4.465,3.645-5.832,4.1,5.6,18,9.66,41.236,20.6,57.5h6.47c10.981-16.266,14.991-39.5,20.641-57.548-1.367-.456-5.832-4.1-5.832-4.1-4.6-2.552-5.468-1.549-5.422-6.516V327Z" transform="translate(-181.922 -182.092)" fill="#f5b67e" fill-rule="evenodd"/><path d="M197.891,358.9c-6.744,3.053-31.257,12.667-33.991,15.036,2.233,4.875,5.6,24.924,8.521,46.521h87.028c2.916-21.552,6.288-41.646,8.521-46.521-2.734-2.369-27.247-11.983-33.991-15.036,8.612,6.7-13.4,25.243-18.043,30.8l-9.341-10.343C205.91,377.49,189.781,365.188,197.891,358.9Z" transform="translate(-148.226 -199.457)" fill="#ff001c" fill-rule="evenodd"/><path d="M273.7,424.4l2.05,1,2-1v31.713H273.7Z" transform="translate(-207.996 -235.113)" fill="#ce0019" fill-rule="evenodd"/><path d="M351.815,183.476c-1.823,9.386,4.283,17.223,13.578,18.909s18.317-3.417,20.139-12.8a17.032,17.032,0,0,0-13.578-20.094A17.545,17.545,0,0,0,351.815,183.476Z" transform="translate(-250.344 -96.207)" fill="#f6c085" fill-rule="evenodd"/><path d="M168.933,183.476c1.823,9.386-4.283,17.223-13.578,18.909s-18.317-3.417-20.139-12.8a17.032,17.032,0,0,1,13.578-20.094A17.5,17.5,0,0,1,168.933,183.476Z" transform="translate(-132.436 -96.207)" fill="#f6c085" fill-rule="evenodd"/><path d="M260.064,43.689c-9.113-12.348-23.283-20.458-38.32-21.051,0,0-.319,0-.775-.046V22s-3.645.137-7.427.273c-3.782-.137-7.427-.273-7.427-.273v.592a5.233,5.233,0,0,0-.775.046c-15.082.592-29.252,8.7-38.32,21.051-9.113,12.348-10.3,27.931-9.614,42.876,1.823,38.32,5.285,81.241,56.272,81.651,51.214.41,54.176-43.605,56-81.651C270.407,71.62,269.177,56.037,260.064,43.689Z" transform="translate(-144.604 -16.064)" fill="#f8c997" fill-rule="evenodd"/><path d="M263.3,99.566c0-1.5,8.019-41.1,6.106-57.958s-12.94-17.633-15.355-18a9.867,9.867,0,0,1-3.6-1.048s-9.842-7.746-29.526-12.576c-19.684-4.875-47.524,9.842-62.742,1.5-7.29,7.7-3.053,22.6-3.053,22.6s-5.513,2.05-6.971,9.614,5.6,56.181,5.6,56.181,3.053-37.5,7.609-42.785c0,0,32.487,5.923,91.174-16.312C264.443,36.323,260.342,85.35,263.3,99.566Z" transform="translate(-139.551 -8.971)" fill-rule="evenodd"/><g transform="translate(36.087 88.317)"><path d="M213.074,211.548a4.374,4.374,0,1,0-4.374-4.374A4.375,4.375,0,0,0,213.074,211.548Z" transform="translate(-208.7 -202.8)" fill="#1a1a1a" fill-rule="evenodd"/><path d="M338.174,211.548a4.374,4.374,0,1,0-4.374-4.374A4.375,4.375,0,0,0,338.174,211.548Z" transform="translate(-276.799 -202.8)" fill="#1a1a1a" fill-rule="evenodd"/></g><g transform="translate(26.61 75.648)"><path d="M187.9,178.506l2.688-1.276c1.458-1.549,5.012-2.278,11.118-2.233,12.849.091,19.729,6.379,13.533,6.106-1.185-.046-2.552-1-3.827-1.276C203.62,177.23,188.128,178.871,187.9,178.506Z" transform="translate(-187.9 -174.996)" fill-rule="evenodd"/><path d="M338.411,179.435a1.179,1.179,0,0,0,.182-.638c-.182-1.959-6.971-3.007-13.9-3.1-8.794-.091-16.13,4.465-15.9,5.149.091.319,1.777-.182,4.966-.592a92.869,92.869,0,0,1,18.226,0C336.315,180.619,337.5,181.029,338.411,179.435Z" transform="translate(-253.707 -175.377)" fill-rule="evenodd"/></g><path d="M245.3,288.312a26.872,26.872,0,0,1,31.257,0,69.72,69.72,0,0,0-15.765-1.777A67.434,67.434,0,0,0,245.3,288.312Z" transform="translate(-192.536 -158.304)" fill="#d6825b" fill-rule="evenodd"/><path d="M263.159,230.334q-.068,0,0-.137a.853.853,0,0,1,.365-.638c1.777-3.463,5.331-13.487,6.926-24.559,1.777.091-1.777,18.818-3.281,23.283a32.052,32.052,0,0,1,5.422-.41c5.194,0,9.432,1.048,9.432,2.324s-4.237,2.324-9.432,2.324C267.579,232.521,263.433,231.518,263.159,230.334Z" transform="translate(-202.24 -115.681)" fill="#e5b17d" fill-rule="evenodd"/><path d="M219.891,363.349c9.887,12.53,24.559,16.859,24.012,15.9-.547-.911-14.489-19.957-15.537-25.243a8.945,8.945,0,0,1,2.142-8.2c1.094-1.276.729-4.1.729-6.014C216.656,339.473,210,350.819,219.891,363.349Z" transform="translate(-176.149 -189.052)" fill="#ce0019" fill-rule="evenodd"/><path d="M302.195,363.349c-9.887,12.53-24.559,16.859-24.012,15.9.547-.911,14.489-19.957,15.537-25.243a8.945,8.945,0,0,0-2.142-8.2c-1.094-1.276-.729-4.1-.729-6.014C305.384,339.473,312.082,350.819,302.195,363.349Z" transform="translate(-210.428 -189.052)" fill="#ce0019" fill-rule="evenodd"/></g></g></svg>