<svg xmlns="http://www.w3.org/2000/svg" width="144.626" height="187.759" viewBox="0 0 144.626 187.759"><path d="M865.8,349.26l-8.239-39.835s-60.394,7.748-63.872-66.4c-.265-8.277-6.047-74.907,72.111-81.181,8.5-.265,67.311-8.844,72,79.329.34,6.69,7.332,66.139-65.157,67.8C872.676,312.336,865.8,349.26,865.8,349.26Z" transform="translate(-793.496 -161.501)" fill="#09a1da"/><g transform="translate(34.143 20.952)"><path d="M898.26,326.753a92.616,92.616,0,0,0,21.58,2.646,90.461,90.461,0,0,0,20.068-2.23,49.789,49.789,0,0,0,1.436-8.428,44.74,44.74,0,0,0-.038-8.163c.756-.038,8.919-4.082,13.492-13.039,3.817-7.483,4.082-18.443,4.044-22.261v-1.323c-.151-5.707-.227-9.411-2.457-12.094a8.314,8.314,0,0,0-5.82-3.023A8.7,8.7,0,0,0,944.1,261.6a117.956,117.956,0,0,0,.265-16.365,67.023,67.023,0,0,1-.227-8.239,35.109,35.109,0,0,0,.227-4.12c-.038-.6-.6-6.009-4.2-8.428a4.807,4.807,0,0,0-1.625-.756c-4.573-1.172-6.349.869-8.995-.416-2.381-1.172-2.457-3.968-5.442-5.48a9.572,9.572,0,0,0-1.625-.6,8.1,8.1,0,0,0-3.59-.076c-2.532.6-2.381,2.57-4.46,3.25-2.343.756-3.477-1.4-6.878-1.361a9.391,9.391,0,0,0-5.48,1.89c-3.666,2.91-1.739,7.256-5.064,10.091-2.608,2.23-4.422.113-7.294,2.116-3.175,2.192-3.742,7.256-4.838,17.385-.3,2.608-.416,4.724-.567,6.576-.378,5.4-.416,9.675-.454,12.472-.151,16.667.416,22.676,1.738,28.8,1.814,8.239,3.7,10.7,4.913,11.943,2.494,2.608,6.047,3.477,6.463,6.538.227,1.625-.6,2.305-.491,4.686A11.85,11.85,0,0,0,898.26,326.753Z" transform="translate(-883.837 -216.939)" fill="#1d1300"/></g><g transform="translate(53.026 27.514)"><path d="M934.367,238.5c.529-2.835,2.8-4.2,3.779-4.2a4.113,4.113,0,0,1,4.082,2.23c1.247,2.494,1.02,6.614,1.02,6.614l.491,30.046-9.94,1.323.265-11.981C934.065,262.57,934.216,241.443,934.367,238.5Z" transform="translate(-933.8 -234.3)" fill="#fecc97"/><path d="M969.717,273.581l9.033-.038s-.038-5.707.189-10.355c.491-9.448.907-21.845.6-22.45-1.89-10.62-9.486-5.782-9.864-1.625,0,.529.227,11.678.038,21.542C969.6,266.853,969.717,273.581,969.717,273.581Z" transform="translate(-956.111 -234.313)" fill="#fecc97"/></g><g transform="translate(39.57 30.825)"><path d="M910.065,340.962v-10.2H913.5v-2.494a19.112,19.112,0,0,1-12.207-8.2c-2.381-3.7-3.4-9.448-3.024-16.629,0-8.012.113-41.573.113-41.573a18.373,18.373,0,0,1,1.172-5.82,5.161,5.161,0,0,1,4.535-3.212,3.954,3.954,0,0,1,3.439,1.663c.378,2.381.491,7.03.68,16.7.038,1.739-.189,12.094-.189,12.094h.567l28.988-1.247.189-5.064s1.474-26.871,1.587-28.156c.227-3.742,6.236-10.167,9.864-1.247.718,2.381.453,4.762,0,19.88,0,1.852-.3,27.514-.3,27.514s-13.341-1.247-22.109,10.2c0,.68,2.457,2.57,2.457,2.57l1.209-1.285,1.209-1.247s4.762-6.274,15.231-6.463a29.988,29.988,0,0,0,4.12,0c-.189-2.494-.643-16.4,8.012-19.086,3.515-.378,5.14.567,4.649,14.021,0,2.759-2.721,20.787-8.995,25.322-4.724,3.742-5.971,4.233-9.675,5.329a64.644,64.644,0,0,0-7.9,2.57l-.3.113v1.739l.113,1.814c1.02-.265,2-.529,3.024-.756,2.192-.567,4.384-1.058,6.538-1.587-.189,1.361-.491,12.774-.491,12.774l-35.942-.038Z" transform="translate(-898.197 -243.062)" fill="#fecc97"/></g></svg>