<svg xmlns="http://www.w3.org/2000/svg" width="144.367" height="180.881" viewBox="0 0 144.367 180.881"><path d="M410.109,518.182l-28.648-32.956s-60.395,7.748-63.872-66.4c-.265-8.277-6.009-74.907,72.148-81.181,8.5-.265,67.311-8.844,72,79.329.34,6.69-.756,59.828-62.133,67.727C399.6,488.06,410.109,518.182,410.109,518.182Z" transform="translate(-317.402 -337.301)" fill="#09a1da"/><g transform="translate(34.302 38.147)"><path d="M425.335,509.69c-.378-1.209-.794-2.419-1.134-3.628a6.978,6.978,0,0,0-.756-2.268,6.454,6.454,0,0,0-2.872-2.116c-1.474-.831-2.23-2.23-3.742-5.027a26.5,26.5,0,0,1-2.872-8.126,72.207,72.207,0,0,1-.756-7.748,14.731,14.731,0,0,0-2.835-8.768c-2-3.326-2.079-6.841-2.192-9.108-.038-1.55-.3-9.524,4.686-13.53,2.759-2.23,3.855-.6,7.483-3.212,3.553-2.57,3.855-5.14,7.408-6.2a8.122,8.122,0,0,1,4.422-.34c2.041.529,2.8,1.814,4.5,1.625.34-.038.3-.076,2.419-1.1a30.755,30.755,0,0,1,3.326-1.474,10.293,10.293,0,0,1,4.082-.378c1.474.189,1.625.567,4.686,1.7a15.283,15.283,0,0,0,4.46,1.247c2.23.076,2.721-.945,4.8-1.323,3.175-.6,8.163,1.965,11,5.064a10.588,10.588,0,0,1,2.268,3.175c1.814,4.12-.794,6.425,1.134,9.448a42.851,42.851,0,0,0,3.515,4.157,14.471,14.471,0,0,1,1.587,1.814c1.247,1.814,2.419,3.212,2.835,4.989.756,3.477.831,4.838.945,10.733.113,5.178-.869,14.7-6.387,17.839-2.986,1.7-4.5,1.7-5.631,2.646a5.8,5.8,0,0,0-1.02,1.361c-2.041,3.364-1.814,7.332-2.268,9.146-1.323,5.593-12.585,7.219-23.054,8.768-5.14,1.02-14.7,1.285-17.914-3.515A28.353,28.353,0,0,1,425.335,509.69Z" transform="translate(-408.162 -438.235)" fill="#1d1300"/></g><g transform="translate(44.277 58.962)"><path d="M447.989,548.221c-1.7-2.268-2.268-8.352-2.268-10.62a4.329,4.329,0,0,0-.491-2.268c-.529-.907-1.285-1.209-2.759-2.154a18.5,18.5,0,0,1-2.683-1.852,20.4,20.4,0,0,1-4.649-8.126,15.877,15.877,0,0,1-.567-4.309,5.419,5.419,0,0,1,.643-3.4,6.025,6.025,0,0,1,2.986-2.986c1.776-.907,3.439-1.323,7.71-2.041,2.986-.491,4.5-.756,6.841-1.02a95.048,95.048,0,0,1,13.114-.756c8.2.227,13.87,2.041,14.021,1.436.038-.189-.378-.6-3.023-1.663a46.49,46.49,0,0,1-6.614-3.023c-2.343-1.285-3.515-1.965-4.157-3.439a6.218,6.218,0,0,1-.038-4.422c1.436-3.364,5.971-4.006,7.03-4.157,3.25-.454,5.934.567,9.713,1.965a34.939,34.939,0,0,1,3.742,1.663c2.305,1.209,5.178,2.721,7.143,5.216,2.419,3.061,2.57,6.576,2.721,9.826.151,3.628.378,8.768-2.91,12.85-3.326,4.157-6.652,2.532-9.94,6.349-4.46,5.216-.265,10.015-3.893,13.87-.869.945-2.268,2.154-15.76,3.59C450.71,550.225,448.934,549.469,447.989,548.221Z" transform="translate(-434.555 -493.311)" fill="#fecc97"/></g><g transform="translate(37.773 42.82)"><path d="M542.4,469.354c1.285-6.085-.718-11.641-4.611-13.681a8.789,8.789,0,0,0-5.253-.831,7.957,7.957,0,0,0-6.009,1.474,7.539,7.539,0,0,0-2.154,2.8c-.34.68-1.512,3.212-.567,4.686,1.02,1.625,3.893.983,7.105,1.209A22.188,22.188,0,0,1,542.4,469.354Z" transform="translate(-483.347 -453.178)" fill="#fecc97"/><path d="M491.955,475.7c.189-1.285.454-3.175.643-5.518.151-2.116.076-2.532.189-6.047a63.487,63.487,0,0,1,.756-9.789c.227-1.361.491-2.457.643-3.175-4.346-1.209-8.73-.491-11.149,2.23a11.017,11.017,0,0,0-2.381,5.9c-.227,1.663,0,3.175.491,6.274a35.372,35.372,0,0,0,1.512,6.274c.831,2.268,1.285,3.4,2.268,4.12C487.382,477.736,491.275,476,491.955,475.7Z" transform="translate(-456.673 -450.6)" fill="#fecc97"/><path d="M431.993,494.48a22.879,22.879,0,0,1-6.69-21.58,10.052,10.052,0,0,0-5.82,3.4,10.779,10.779,0,0,0-1.852,9.07c.907,4.157,1.663,7.294,4.762,10.2A17.247,17.247,0,0,0,431.993,494.48Z" transform="translate(-417.347 -464.472)" fill="#fecc97"/><path d="M459,480.854a68.979,68.979,0,0,1-3.364-24.264,7.106,7.106,0,0,0-3.666-.491,7.494,7.494,0,0,0-3.666,1.512,8.508,8.508,0,0,0-2.23,2.457,9.209,9.209,0,0,0-.68,7.143,16.385,16.385,0,0,0,1.927,9.9c1.172,2.041,2.23,4.309,4.762,5.14C455.412,483.386,458.549,481.194,459,480.854Z" transform="translate(-434.529 -453.982)" fill="#fecc97"/></g></svg>